<?xml version="1.0" encoding="utf-8"?>
<!-- Generator: Adobe Illustrator 20.1.0, SVG Export Plug-In . SVG Version: 6.00 Build 0)  -->
<svg version="1.1" id="Layer_1" xmlns="http://www.w3.org/2000/svg" xmlns:xlink="http://www.w3.org/1999/xlink" x="0px" y="0px"
	 viewBox="0 0 17 17" style="enable-background:new 0 0 17 17;" xml:space="preserve">
<style type="text/css">
	.st0{fill:#A68024;}
</style>
<path class="st0" d="M10.9,4.9L7.2,8.5l3.6,3.6l-0.7,0.7L5.8,8.5l4.4-4.4C10.1,4.1,10.9,4.9,10.9,4.9z M17,8.5
	c0,4.7-3.8,8.5-8.5,8.5S0,13.2,0,8.5S3.8,0,8.5,0S17,3.8,17,8.5z M16,8.5C16,4.4,12.6,1,8.5,1S1,4.4,1,8.5S4.4,16,8.5,16
	S16,12.6,16,8.5z"/>
</svg>
