<svg id="Layer_1" data-name="Layer 1" xmlns="http://www.w3.org/2000/svg" viewBox="0 0 17 17"><defs><style>.cls-1{fill:#a68024;}</style></defs><title>ico-insta</title><path class="cls-1" d="M13,0H4A4,4,0,0,0,0,4v9a4,4,0,0,0,4,4h9a4,4,0,0,0,4-4V4A4,4,0,0,0,13,0Zm3,13a3,3,0,0,1-3,3H4a3,3,0,0,1-3-3V7H4.21a4.69,4.69,0,0,0-.46,2,4.75,4.75,0,0,0,9.5,0,4.69,4.69,0,0,0-.46-2H16ZM12.25,9A3.75,3.75,0,1,1,8.5,5.25,3.75,3.75,0,0,1,12.25,9Zm-.1-3a4.69,4.69,0,0,0-7.3,0H1V4A3,3,0,0,1,4,1h9a3,3,0,0,1,3,3V6Zm2.3-3.28V4a.54.54,0,0,1-.54.54H12.54A.55.55,0,0,1,12,4V2.72a.54.54,0,0,1,.54-.54h1.37A.54.54,0,0,1,14.45,2.72Z"/></svg>