<svg id="Layer_1" data-name="Layer 1" xmlns="http://www.w3.org/2000/svg" viewBox="0 0 16 15.29"><defs><style>.cls-1{fill:#a68024;}</style></defs><title>ico-ldin</title><path class="cls-1" d="M.7,5.82H4.14V16.15H.7Zm1.74-5A1.79,1.79,0,0,0,.5,2.64,1.77,1.77,0,0,0,2.4,4.42h0a1.79,1.79,0,1,0,0-3.56ZM12.55,5.58A3.39,3.39,0,0,0,9.46,7.29V5.82H6s0,1,0,10.32H9.46V10.39a2.61,2.61,0,0,1,.11-.84,1.88,1.88,0,0,1,1.76-1.25c1.24,0,1.74.95,1.74,2.33v5.52H16.5V10.23C16.5,7.06,14.81,5.58,12.55,5.58Z" transform="translate(-0.5 -0.85)"/></svg>