<svg id="Layer_1" data-name="Layer 1" xmlns="http://www.w3.org/2000/svg" xmlns:xlink="http://www.w3.org/1999/xlink" viewBox="0 0 339.86 708.15"><defs><style>.cls-1,.cls-10,.cls-13,.cls-16,.cls-18,.cls-20,.cls-23,.cls-26,.cls-48,.cls-50{fill:none;}.cls-1{stroke:#b72225;}.cls-1,.cls-18,.cls-23,.cls-4,.cls-47{stroke-miterlimit:10;}.cls-2{opacity:0.9;fill:url(#radial-gradient);}.cls-3{fill:#911a1d;}.cls-4,.cls-47,.cls-5{fill:#5e5f5f;}.cls-4,.cls-47{stroke:#5e5f5f;}.cls-12,.cls-6,.cls-7,.cls-8{fill:#fff;}.cls-34,.cls-7,.cls-8{font-size:8px;}.cls-7{font-family:STHeitiTC-Light, Heiti TC;}.cls-8{font-family:TrebuchetMS, Trebuchet MS;}.cls-9{letter-spacing:-0.06em;}.cls-10,.cls-20,.cls-48,.cls-50{stroke:#fff;}.cls-10,.cls-13,.cls-16,.cls-20,.cls-48{stroke-miterlimit:3;}.cls-10{stroke-width:0.5px;}.cls-11{fill:#9ecc3b;}.cls-12{font-size:40px;font-family:SourceSansPro-Regular, SourceSansPro Regular;}.cls-13{stroke:#f2f2f2;}.cls-13,.cls-16{stroke-width:3px;}.cls-14{fill:#a36133;}.cls-15,.cls-27,.cls-28{font-size:13px;}.cls-15{fill:#eaeaea;}.cls-15,.cls-27,.cls-28,.cls-31,.cls-34,.cls-39{font-family:Seravek-Bold, Seravek;font-weight:700;}.cls-16{stroke:#9b9b9b;}.cls-17{fill:#898989;}.cls-18,.cls-26{stroke:#5e210c;}.cls-19{fill:#1294b2;}.cls-20,.cls-26,.cls-48,.cls-50{stroke-linecap:round;stroke-width:2px;}.cls-21{fill:#2c7a77;}.cls-22{fill:#14bab1;}.cls-23{stroke:#f4f4f4;}.cls-24{fill:#f4f4f4;}.cls-25{opacity:0.45;}.cls-26,.cls-50{stroke-linejoin:round;}.cls-27{fill:#5e210c;}.cls-28,.cls-31,.cls-34,.cls-39{fill:#efefef;}.cls-29{letter-spacing:0.01em;}.cls-30{letter-spacing:0em;}.cls-31{font-size:11px;}.cls-32{letter-spacing:-0.05em;}.cls-33{letter-spacing:0.01em;}.cls-35{letter-spacing:-0.01em;}.cls-36{letter-spacing:0em;}.cls-37{letter-spacing:0em;}.cls-38{letter-spacing:0em;}.cls-39{font-size:9px;}.cls-40{letter-spacing:-0.01em;}.cls-41{letter-spacing:-0.02em;}.cls-42{letter-spacing:-0.04em;}.cls-43{fill:#9b1d20;}.cls-44{fill:#44b649;}.cls-45{fill:#3b5ba9;}.cls-46{fill:#e0ce4b;}.cls-47{opacity:0.55;}.cls-48{opacity:0.64;}.cls-49{fill:#2f6977;}</style><radialGradient id="radial-gradient" cx="175" cy="105.17" r="226.67" gradientUnits="userSpaceOnUse"><stop offset="0.31" stop-color="#636363"/><stop offset="0.46" stop-color="#545454" stop-opacity="0.91"/><stop offset="0.73" stop-color="#2d2d2d" stop-opacity="0.67"/><stop offset="1" stop-opacity="0.4"/></radialGradient></defs><title>ui-remote</title><path class="cls-1" d="M303.52,730.21H77.94c-26.74,0-48.42-22.16-48.42-49.49V83.47C29.52,56.13,51.2,34,77.94,34H303.53c26.74,0,48.42,22.16,48.42,49.49V680.71C351.94,708,330.26,730.21,303.52,730.21Z" transform="translate(-19.39 -26.2)"/><path class="cls-1" d="M308.35,30.33h-7.7a2.75,2.75,0,0,0,.13-.78v-.06A2.78,2.78,0,0,0,298,26.7H249.43a2.78,2.78,0,0,0-2.78,2.78v.06a2.75,2.75,0,0,0,.13.78H73.47a50.21,50.21,0,0,0-50.41,50v46.14a2.08,2.08,0,0,0-1-.27h0a2.1,2.1,0,0,0-2.1,2.1v28a2.1,2.1,0,0,0,2.1,2.1h0a2.08,2.08,0,0,0,1-.27V194a2.67,2.67,0,0,0-1-.2h0c-1.16,0-2.1.7-2.1,1.56v20.74c0,.86.94,1.56,2.1,1.56h0a2.67,2.67,0,0,0,1-.2v33.36a2.67,2.67,0,0,0-1-.2h0c-1.16,0-2.1.7-2.1,1.56v20.74c0,.86.94,1.56,2.1,1.56h0a2.67,2.67,0,0,0,1-.2V683.84a50.21,50.21,0,0,0,50.41,50H308.35a50.21,50.21,0,0,0,50.41-50V80.34A50.21,50.21,0,0,0,308.35,30.33Z" transform="translate(-19.39 -26.2)"/><line class="cls-1" x1="3.67" y1="63.75" x2="10.13" y2="63.75"/><line class="cls-1" x1="3.67" y1="69.75" x2="10.13" y2="69.75"/><line class="cls-1" x1="332.13" y1="63.75" x2="338.59" y2="63.75"/><line class="cls-1" x1="332.13" y1="69.75" x2="338.59" y2="69.75"/><line class="cls-1" x1="332.55" y1="640.75" x2="339.01" y2="640.75"/><line class="cls-1" x1="332.55" y1="646.75" x2="339.01" y2="646.75"/><line class="cls-1" x1="3.9" y1="640.5" x2="10.36" y2="640.5"/><line class="cls-1" x1="3.9" y1="646.5" x2="10.36" y2="646.5"/><circle class="cls-1" cx="171.1" cy="655.4" r="26.9"/><circle class="cls-1" cx="171.1" cy="655.4" r="30.16"/><line class="cls-1" x1="3.67" y1="63.75" x2="10.13" y2="63.75"/><line class="cls-1" x1="3.67" y1="69.75" x2="10.13" y2="69.75"/><rect class="cls-1" x="25" y="99.83" width="291.45" height="510.76" rx="4.86" ry="4.86"/><circle class="cls-1" cx="125.56" cy="64.06" r="4.31"/><circle class="cls-1" cx="170.72" cy="37.49" r="6.55"/><circle class="cls-1" cx="170.72" cy="37.49" r="2.27"/><rect class="cls-1" x="140.75" y="57.38" width="61.25" height="13.25" rx="6.56" ry="6.56"/><rect class="cls-1" x="143.5" y="61" width="55" height="6.63" rx="3.28" ry="3.28"/><rect class="cls-2" x="28.39" y="103.7" width="284.67" height="503.26"/><circle class="cls-3" cx="72.13" cy="143.86" r="22.7"/><circle class="cls-4" cx="74.33" cy="364.6" r="29.37"/><circle class="cls-5" cx="170.72" cy="364.6" r="29.37"/><circle class="cls-5" cx="269.2" cy="364.6" r="29.37"/><circle class="cls-6" cx="33.46" cy="111.7" r="2.5"/><circle class="cls-6" cx="39.75" cy="111.7" r="2.5"/><circle class="cls-6" cx="45.89" cy="111.7" r="2.5"/><circle class="cls-6" cx="52.12" cy="111.7" r="2.5"/><circle class="cls-6" cx="58.21" cy="111.7" r="2.5"/><text class="cls-7" transform="translate(63.71 114.57)">中華電信</text><text class="cls-8" transform="translate(160.05 114.1)">10:11<tspan class="cls-9" x="19.72" y="0"> </tspan><tspan x="21.69" y="0">AM</tspan></text><rect class="cls-10" x="281.38" y="107.49" width="19.83" height="8.42" rx="0.74" ry="0.74"/><path class="cls-6" d="M319.33,141.44h-17.4a.67.67,0,0,1-.7-.63v-5.95a.67.67,0,0,1,.7-.63h17.4a.67.67,0,0,1,.7.63v5.95A.67.67,0,0,1,319.33,141.44Z" transform="translate(-19.39 -26.2)"/><path class="cls-6" d="M322.69,137.9a1.58,1.58,0,0,1-1.58,1.58v-3.17A1.58,1.58,0,0,1,322.69,137.9Z" transform="translate(-19.39 -26.2)"/><text x="-19.39" y="-26.2"></text><path class="cls-11" d="M290.79,377.3" transform="translate(-19.39 -26.2)"/><circle class="cls-5" cx="74.33" cy="430.96" r="29.37"/><circle class="cls-5" cx="170.72" cy="430.96" r="29.37"/><circle class="cls-5" cx="269.2" cy="430.96" r="29.37"/><path class="cls-11" d="M290.79,443.66" transform="translate(-19.39 -26.2)"/><circle class="cls-5" cx="74.33" cy="500.31" r="29.37"/><circle class="cls-5" cx="170.72" cy="500.31" r="29.37"/><circle class="cls-5" cx="170.72" cy="569.64" r="29.37"/><circle class="cls-5" cx="269.2" cy="500.31" r="29.37"/><path class="cls-11" d="M290.79,513" transform="translate(-19.39 -26.2)"/><text class="cls-12" transform="translate(161.16 376.37)">2</text><text class="cls-12" transform="translate(64.32 376.37)">1</text><text class="cls-12" transform="translate(259.11 376.37)">3</text><text class="cls-12" transform="translate(162.16 441.78)">5</text><text class="cls-12" transform="translate(63.32 441.78)">4</text><text class="cls-12" transform="translate(259.61 441.78)">6</text><text class="cls-12" transform="translate(161.16 512.23)">8</text><text class="cls-12" transform="translate(161.16 583.37)">0</text><text class="cls-12" transform="translate(63.32 512.23)">7</text><text class="cls-12" transform="translate(260.61 513.05)">9</text><path class="cls-13" d="M91.66,156.65A13.56,13.56,0,1,1,78.1,170.21" transform="translate(-19.39 -26.2)"/><polygon class="cls-6" points="58.7 140.61 53.75 145.56 63.66 145.56 58.7 140.61"/><line class="cls-13" x1="72.5" y1="136.16" x2="72.5" y2="152.17"/><ellipse class="cls-14" cx="72.38" cy="570.64" rx="23.38" ry="23.87"/><text class="cls-15" transform="translate(62.72 575.01)">CH</text><path class="cls-16" d="M83,587.3H97.54A10.73,10.73,0,0,1,108.27,598v1.83" transform="translate(-19.39 -26.2)"/><polygon class="cls-17" points="60.91 561.1 64.76 564.95 64.76 557.25 60.91 561.1"/><path class="cls-13" d="M100.57,606.64H86a10.73,10.73,0,0,1-10.73-10.73v-1.83" transform="translate(-19.39 -26.2)"/><polygon class="cls-6" points="83.86 580.44 80.01 576.59 80.01 584.29 83.86 580.44"/><ellipse class="cls-18" cx="269.2" cy="570.64" rx="23.38" ry="23.87"/><path class="cls-19" d="M311.15,253.74,268.81,211.4a4,4,0,0,1,2.86-6.91H314a4,4,0,0,1,4,4v42.34A4,4,0,0,1,311.15,253.74Z" transform="translate(-19.39 -26.2)"/><polyline class="cls-20" points="273.44 198.74 283.01 189.17 292.58 198.74"/><path class="cls-21" d="M72.58,292.63h0a3,3,0,0,1,2.12.9L117,335.87a3,3,0,0,1-2.15,5.2H72.55a3,3,0,0,1-3-3V295.68a3,3,0,0,1,3.08-3.05m0-1a4,4,0,0,0-4.08,4.05V338a4,4,0,0,0,4,4h42.34a4,4,0,0,0,2.86-6.91L75.41,292.82a4,4,0,0,0-2.83-1.19Z" transform="translate(-19.39 -26.2)"/><path class="cls-22" d="M117.75,211.33,75.41,253.67a4,4,0,0,1-6.91-2.86V208.47a4,4,0,0,1,4-4h42.34A4,4,0,0,1,117.75,211.33Z" transform="translate(-19.39 -26.2)"/><line class="cls-20" x1="82.94" y1="194.88" x2="61.76" y2="194.88"/><line class="cls-20" x1="79.52" y1="301.21" x2="59.76" y2="301.21"/><rect class="cls-23" x="142.47" y="132.4" width="29.49" height="16.41" rx="2.61" ry="2.61"/><rect class="cls-23" x="147.63" y="150.17" width="20" height="0.83"/><rect class="cls-23" x="146.88" y="126.04" width="20.25" height="5.08" rx="1.45" ry="1.45"/><circle class="cls-24" cx="149.55" cy="128.58" r="0.75"/><circle class="cls-24" cx="168.88" cy="147.08" r="0.75"/><rect class="cls-24" x="150.93" y="140.01" width="13.79" height="1.21"/><g class="cls-25"><rect class="cls-23" x="181.13" y="132.4" width="29.49" height="16.41" rx="2.61" ry="2.61"/><rect class="cls-23" x="186.3" y="150.17" width="20" height="0.83"/><rect class="cls-23" x="185.55" y="126.04" width="20.25" height="5.08" rx="1.45" ry="1.45"/><circle class="cls-24" cx="203.47" cy="128.58" r="0.75"/><circle class="cls-24" cx="207.55" cy="147.08" r="0.75"/><rect class="cls-24" x="200.4" y="139.5" width="2.32" height="2.32"/><rect class="cls-24" x="195.52" y="139.5" width="0.37" height="2.32"/><rect class="cls-24" x="195.52" y="139.5" width="0.37" height="2.32"/><rect class="cls-24" x="196.12" y="139.5" width="0.37" height="2.32"/><polyline class="cls-24" points="190.41 139.41 191.61 140.61 190.41 141.81"/></g><polyline class="cls-26" points="257.61 557.88 285.74 572.33 256.66 572.33"/><text class="cls-27" transform="translate(252.61 583.19)">MUTE</text><line class="cls-20" x1="72.35" y1="184.29" x2="72.35" y2="205.48"/><line class="cls-23" x1="273.44" y1="136.16" x2="293.81" y2="136.16"/><line class="cls-23" x1="273.44" y1="140.66" x2="293.81" y2="140.66"/><line class="cls-23" x1="273.44" y1="144.83" x2="293.81" y2="144.83"/><circle class="cls-24" cx="270.58" cy="136.25" r="1.08"/><circle class="cls-24" cx="270.58" cy="140.66" r="1.08"/><circle class="cls-24" cx="270.58" cy="144.83" r="1.08"/><path class="cls-5" d="M140.57,275.4c0,7.57-4.9,13.7-10.94,13.7H107.22c-6,0-10.94-6.13-10.94-13.7h0c0-7.57,4.9-13.7,10.94-13.7h22.42c6,0,10.94,6.13,10.94,13.7Z" transform="translate(-19.39 -26.2)"/><path class="cls-5" d="M192.87,275.4c0,7.57-4.9,13.7-10.94,13.7H159.51c-6,0-10.94-6.13-10.94-13.7h0c0-7.57,4.9-13.7,10.94-13.7h22.42c6,0,10.94,6.13,10.94,13.7Z" transform="translate(-19.39 -26.2)"/><path class="cls-5" d="M293.25,275.4c0,7.57-4.9,13.7-10.94,13.7H259.9c-6,0-10.94-6.13-10.94-13.7h0c0-7.57,4.9-13.7,10.94-13.7h22.42c6,0,10.94,6.13,10.94,13.7Z" transform="translate(-19.39 -26.2)"/><text class="cls-28" transform="translate(139.83 253.19)">E<tspan class="cls-29" x="6.9" y="0">P</tspan><tspan class="cls-30" x="14.3" y="0">G</tspan></text><text class="cls-31" transform="translate(80.58 253.19)">REPE<tspan class="cls-32" x="24.86" y="0">A</tspan><tspan x="32.06" y="0">T</tspan></text><path class="cls-5" d="M192.42,240.09c0,7.57-4.9,13.7-10.94,13.7H159.07c-6,0-10.94-6.13-10.94-13.7h0c0-7.57,4.9-13.7,10.94-13.7h22.42c6,0,10.94,6.13,10.94,13.7Z" transform="translate(-19.39 -26.2)"/><text class="cls-31" transform="translate(138.44 217.88)">T<tspan class="cls-33" x="6.05" y="0">E</tspan><tspan x="11.95" y="0">XT</tspan></text><path class="cls-5" d="M244.26,240.09c0,7.57-4.9,13.7-10.94,13.7H210.91c-6,0-10.94-6.13-10.94-13.7h0c0-7.57,4.9-13.7,10.94-13.7h22.42c6,0,10.94,6.13,10.94,13.7Z" transform="translate(-19.39 -26.2)"/><text class="cls-34" transform="translate(186.28 217.88)">SU<tspan class="cls-35" x="9.76" y="0">B</tspan><tspan class="cls-36" x="14.43" y="0">TITLE</tspan></text><text class="cls-31" transform="translate(236.6 253.19)">Z<tspan class="cls-37" x="6.27" y="0">O</tspan><tspan class="cls-38" x="14.53" y="0">OM</tspan></text><path class="cls-5" d="M244.26,275.4c0,7.57-4.9,13.7-10.94,13.7H210.91c-6,0-10.94-6.13-10.94-13.7h0c0-7.57,4.9-13.7,10.94-13.7h22.42c6,0,10.94,6.13,10.94,13.7Z" transform="translate(-19.39 -26.2)"/><text class="cls-39" transform="translate(186.61 253.19)"><tspan class="cls-40">R</tspan><tspan class="cls-41" x="5.68" y="0">O</tspan><tspan class="cls-42" x="12.28" y="0">TA</tspan><tspan x="22.72" y="0">TE</tspan></text><path class="cls-43" d="M140.57,303.39c0,4.15-4.9,7.52-10.94,7.52H107.22c-6,0-10.94-3.37-10.94-7.52h0c0-4.15,4.9-7.52,10.94-7.52h22.42c6,0,10.94,3.37,10.94,7.52Z" transform="translate(-19.39 -26.2)"/><path class="cls-44" d="M192.87,303.39c0,4.15-4.9,7.52-10.94,7.52H159.51c-6,0-10.94-3.37-10.94-7.52h0c0-4.15,4.9-7.52,10.94-7.52h22.42c6,0,10.94,3.37,10.94,7.52Z" transform="translate(-19.39 -26.2)"/><path class="cls-45" d="M293.25,303.39c0,4.15-4.9,7.52-10.94,7.52H259.9c-6,0-10.94-3.37-10.94-7.52h0c0-4.15,4.9-7.52,10.94-7.52h22.42c6,0,10.94,3.37,10.94,7.52Z" transform="translate(-19.39 -26.2)"/><path class="cls-46" d="M244.26,303.39c0,4.15-4.9,7.52-10.94,7.52H210.91c-6,0-10.94-3.37-10.94-7.52h0c0-4.15,4.9-7.52,10.94-7.52h22.42c6,0,10.94,3.37,10.94,7.52Z" transform="translate(-19.39 -26.2)"/><path class="cls-47" d="M58.17,367.28H48.54a3.09,3.09,0,0,0-.63.07V447a3.09,3.09,0,0,0,.63.07h9.63a2.48,2.48,0,0,0,2.66-2.25V369.53A2.48,2.48,0,0,0,58.17,367.28Z" transform="translate(-19.39 -26.2)"/><line class="cls-48" x1="31.98" y1="389.92" x2="31.98" y2="370.16"/><line class="cls-48" x1="34.98" y1="389.92" x2="34.98" y2="370.16"/><line class="cls-48" x1="37.98" y1="389.92" x2="37.98" y2="370.16"/><text x="-19.39" y="-26.2"></text><path class="cls-11" d="M290.79,377.3" transform="translate(-19.39 -26.2)"/><path class="cls-11" d="M290.79,443.66" transform="translate(-19.39 -26.2)"/><path class="cls-11" d="M290.79,513" transform="translate(-19.39 -26.2)"/><text class="cls-12" transform="translate(161.16 376.37)">2</text><text class="cls-12" transform="translate(64.32 376.37)">1</text><text class="cls-12" transform="translate(259.11 376.37)">3</text><text class="cls-12" transform="translate(162.16 441.78)">5</text><text class="cls-12" transform="translate(63.32 441.78)">4</text><text class="cls-12" transform="translate(259.61 441.78)">6</text><text class="cls-12" transform="translate(161.16 512.23)">8</text><text class="cls-12" transform="translate(161.16 583.37)">0</text><text class="cls-12" transform="translate(63.32 512.23)">7</text><text class="cls-12" transform="translate(260.61 513.05)">9</text><polygon class="cls-6" points="58.7 140.61 53.75 145.56 63.66 145.56 58.7 140.61"/><line class="cls-13" x1="72.5" y1="136.16" x2="72.5" y2="152.17"/><text class="cls-15" transform="translate(62.72 575.01)">CH</text><path class="cls-16" d="M83,587.3H97.54A10.73,10.73,0,0,1,108.27,598v1.83" transform="translate(-19.39 -26.2)"/><polygon class="cls-17" points="60.91 561.1 64.76 564.95 64.76 557.25 60.91 561.1"/><path class="cls-13" d="M100.57,606.64H86a10.73,10.73,0,0,1-10.73-10.73v-1.83" transform="translate(-19.39 -26.2)"/><polygon class="cls-6" points="83.86 580.44 80.01 576.59 80.01 584.29 83.86 580.44"/><path class="cls-49" d="M314,292.7h0a3,3,0,0,1,3.07,3.05V338.1a3,3,0,0,1-3,3H271.67a3,3,0,0,1-2.15-5.2l42.34-42.34a3,3,0,0,1,2.12-.9m0-1a4,4,0,0,0-2.83,1.19l-42.34,42.34a4,4,0,0,0,2.86,6.91H314a4,4,0,0,0,4-4V295.75A4,4,0,0,0,314,291.7Z" transform="translate(-19.39 -26.2)"/><polyline class="cls-20" points="273.44 198.74 283.01 189.17 292.58 198.74"/><polyline class="cls-50" points="292.58 299.88 283.01 309.45 273.44 299.88"/><polyline class="cls-26" points="257.61 557.88 285.74 572.33 256.66 572.33"/><text class="cls-27" transform="translate(252.61 583.19)">MUTE</text><text class="cls-28" transform="translate(139.83 253.19)">E<tspan class="cls-29" x="6.9" y="0">P</tspan><tspan class="cls-30" x="14.3" y="0">G</tspan></text><text class="cls-31" transform="translate(80.58 253.19)">REPE<tspan class="cls-32" x="24.86" y="0">A</tspan><tspan x="32.06" y="0">T</tspan></text><text class="cls-31" transform="translate(138.44 217.88)">T<tspan class="cls-33" x="6.05" y="0">E</tspan><tspan x="11.95" y="0">XT</tspan></text><text class="cls-34" transform="translate(186.28 217.88)">SU<tspan class="cls-35" x="9.76" y="0">B</tspan><tspan class="cls-36" x="14.43" y="0">TITLE</tspan></text><text class="cls-31" transform="translate(236.6 253.19)">Z<tspan class="cls-37" x="6.27" y="0">O</tspan><tspan class="cls-38" x="14.53" y="0">OM</tspan></text><text class="cls-39" transform="translate(186.61 253.19)"><tspan class="cls-40">R</tspan><tspan class="cls-41" x="5.68" y="0">O</tspan><tspan class="cls-42" x="12.28" y="0">TA</tspan><tspan x="22.72" y="0">TE</tspan></text><line class="cls-48" x1="31.98" y1="389.92" x2="31.98" y2="370.16"/><line class="cls-48" x1="34.98" y1="389.92" x2="34.98" y2="370.16"/><line class="cls-48" x1="37.98" y1="389.92" x2="37.98" y2="370.16"/></svg>